<mxfile host="65bd71144e">
    <diagram id="QqY9weUzhxz__bN5Id-2" name="SLB B2C">
        <mxGraphModel dx="1327" dy="780" grid="1" gridSize="10" guides="1" tooltips="1" connect="1" arrows="1" fold="1" page="1" pageScale="1" pageWidth="1100" pageHeight="850" math="0" shadow="0">
            <root>
                <mxCell id="0"/>
                <mxCell id="1" parent="0"/>
                <mxCell id="9" value="domain_hint=AAD1" style="edgeStyle=none;html=1;entryX=-0.038;entryY=0.484;entryDx=0;entryDy=0;entryPerimeter=0;" edge="1" parent="1" source="2" target="8">
                    <mxGeometry relative="1" as="geometry"/>
                </mxCell>
                <mxCell id="11" value="domain_hint=AAD2" style="edgeStyle=none;html=1;entryX=-0.068;entryY=0.51;entryDx=0;entryDy=0;entryPerimeter=0;" edge="1" parent="1" source="2" target="10">
                    <mxGeometry relative="1" as="geometry"/>
                </mxCell>
                <mxCell id="22" value="domain_hint=IDP1" style="edgeStyle=none;html=1;entryX=-0.006;entryY=0.144;entryDx=0;entryDy=0;entryPerimeter=0;fillColor=#a20025;strokeColor=#6F0000;strokeWidth=5;" edge="1" parent="1" source="2" target="16">
                    <mxGeometry relative="1" as="geometry"/>
                </mxCell>
                <mxCell id="24" value="domain_hint=IDP2" style="edgeStyle=none;html=1;entryX=0.006;entryY=0.169;entryDx=0;entryDy=0;entryPerimeter=0;strokeWidth=5;fillColor=#a20025;strokeColor=#6F0000;" edge="1" parent="1" source="2" target="17">
                    <mxGeometry relative="1" as="geometry"/>
                </mxCell>
                <mxCell id="qHIqEEDPbHJczNNXpV9J-27" value="domain_hint=AAD-PRIME" style="edgeStyle=none;html=1;entryX=1.021;entryY=0.664;entryDx=0;entryDy=0;entryPerimeter=0;strokeWidth=1;" edge="1" parent="1" source="2" target="25">
                    <mxGeometry relative="1" as="geometry"/>
                </mxCell>
                <mxCell id="S6Tpn6_w-clO6A-9Hf31-27" value="COmmon Endpoint" style="edgeStyle=none;html=1;entryX=-0.064;entryY=0.578;entryDx=0;entryDy=0;entryPerimeter=0;strokeWidth=1;" edge="1" parent="1" source="2" target="S6Tpn6_w-clO6A-9Hf31-26">
                    <mxGeometry relative="1" as="geometry"/>
                </mxCell>
                <mxCell id="2" value="B2C" style="aspect=fixed;html=1;points=[];align=center;image;fontSize=12;image=img/lib/azure2/identity/Azure_AD_B2C.svg;" vertex="1" parent="1">
                    <mxGeometry x="420" y="170" width="69" height="64" as="geometry"/>
                </mxCell>
                <mxCell id="4" value="set domain_hint" style="edgeStyle=none;html=1;entryX=-0.051;entryY=0.615;entryDx=0;entryDy=0;entryPerimeter=0;exitX=1;exitY=0.25;exitDx=0;exitDy=0;" edge="1" parent="1" source="3" target="2">
                    <mxGeometry relative="1" as="geometry"/>
                </mxCell>
                <mxCell id="6" style="edgeStyle=none;html=1;exitX=1;exitY=0.75;exitDx=0;exitDy=0;entryX=-0.043;entryY=0.377;entryDx=0;entryDy=0;entryPerimeter=0;" edge="1" parent="1" source="3" target="7">
                    <mxGeometry relative="1" as="geometry">
                        <mxPoint x="424.5" y="465" as="targetPoint"/>
                    </mxGeometry>
                </mxCell>
                <mxCell id="26" style="edgeStyle=none;html=1;entryX=0.493;entryY=1.008;entryDx=0;entryDy=0;entryPerimeter=0;strokeWidth=1;" edge="1" parent="1" source="3" target="25">
                    <mxGeometry relative="1" as="geometry"/>
                </mxCell>
                <mxCell id="3" value="SAuth" style="whiteSpace=wrap;html=1;aspect=fixed;" vertex="1" parent="1">
                    <mxGeometry x="160" y="280" width="131" height="131" as="geometry"/>
                </mxCell>
                <mxCell id="18" style="edgeStyle=none;html=1;entryX=0;entryY=0.75;entryDx=0;entryDy=0;" edge="1" parent="1" source="7" target="16">
                    <mxGeometry relative="1" as="geometry"/>
                </mxCell>
                <mxCell id="19" style="edgeStyle=none;html=1;entryX=0;entryY=0.5;entryDx=0;entryDy=0;" edge="1" parent="1" source="7" target="17">
                    <mxGeometry relative="1" as="geometry"/>
                </mxCell>
                <mxCell id="7" value="KeyCloak" style="aspect=fixed;perimeter=ellipsePerimeter;html=1;align=center;shadow=0;dashed=0;spacingTop=3;image;image=img/lib/active_directory/database_cube.svg;" vertex="1" parent="1">
                    <mxGeometry x="420" y="584.5" width="72" height="80" as="geometry"/>
                </mxCell>
                <mxCell id="8" value="" style="aspect=fixed;html=1;points=[];align=center;image;fontSize=12;image=img/lib/azure2/identity/Azure_Active_Directory.svg;" vertex="1" parent="1">
                    <mxGeometry x="590" y="80" width="70" height="64" as="geometry"/>
                </mxCell>
                <mxCell id="10" value="" style="aspect=fixed;html=1;points=[];align=center;image;fontSize=12;image=img/lib/azure2/identity/Azure_Active_Directory.svg;" vertex="1" parent="1">
                    <mxGeometry x="590" y="170" width="70" height="64" as="geometry"/>
                </mxCell>
                <mxCell id="15" style="edgeStyle=none;html=1;entryX=0;entryY=0.5;entryDx=0;entryDy=0;" edge="1" parent="1" source="14" target="3">
                    <mxGeometry relative="1" as="geometry"/>
                </mxCell>
                <mxCell id="14" value="User" style="shape=umlActor;verticalLabelPosition=bottom;verticalAlign=top;html=1;outlineConnect=0;" vertex="1" parent="1">
                    <mxGeometry x="30" y="315.5" width="30" height="60" as="geometry"/>
                </mxCell>
                <mxCell id="16" value="IDP 1" style="whiteSpace=wrap;html=1;aspect=fixed;" vertex="1" parent="1">
                    <mxGeometry x="700" y="470" width="80" height="80" as="geometry"/>
                </mxCell>
                <mxCell id="17" value="IDP 2" style="whiteSpace=wrap;html=1;aspect=fixed;" vertex="1" parent="1">
                    <mxGeometry x="700" y="624.5" width="80" height="80" as="geometry"/>
                </mxCell>
                <mxCell id="20" value="Exposed as OIDC/SAML" style="text;html=1;align=center;verticalAlign=middle;resizable=0;points=[];autosize=1;strokeColor=none;fillColor=none;" vertex="1" parent="1">
                    <mxGeometry x="700" y="450" width="150" height="20" as="geometry"/>
                </mxCell>
                <mxCell id="21" value="Exposed as OIDC/SAML" style="text;html=1;align=center;verticalAlign=middle;resizable=0;points=[];autosize=1;strokeColor=none;fillColor=none;" vertex="1" parent="1">
                    <mxGeometry x="700" y="604.5" width="150" height="20" as="geometry"/>
                </mxCell>
                <mxCell id="25" value="" style="aspect=fixed;html=1;points=[];align=center;image;fontSize=12;image=img/lib/azure2/identity/Azure_Active_Directory.svg;" vertex="1" parent="1">
                    <mxGeometry x="190.5" y="106" width="70" height="64" as="geometry"/>
                </mxCell>
                <mxCell id="qHIqEEDPbHJczNNXpV9J-26" value="Exposed as OIDC/SAML&lt;br&gt;&lt;br&gt;Phase 2 -- can be moved&lt;br&gt;to B2C via separate domain_hint&lt;br&gt;and is another AAD/OIDC/SAML&lt;br&gt;TechProfile" style="text;html=1;align=center;verticalAlign=middle;resizable=0;points=[];autosize=1;strokeColor=none;fillColor=none;" vertex="1" parent="1">
                    <mxGeometry x="40" y="30" width="190" height="90" as="geometry"/>
                </mxCell>
                <mxCell id="MjARPhCLm3qgXovUeG9C-27" value="" style="shape=curlyBracket;whiteSpace=wrap;html=1;rounded=1;flipH=1;" vertex="1" parent="1">
                    <mxGeometry x="680" y="80" width="20" height="160" as="geometry"/>
                </mxCell>
                <mxCell id="MjARPhCLm3qgXovUeG9C-28" value="AAD and other &lt;br&gt;OIDC/SAML &lt;br&gt;enabled IdPs&lt;br&gt;&lt;br&gt;Phase 0&lt;br&gt;domain_hints&lt;br&gt;if applicable" style="text;html=1;align=center;verticalAlign=middle;resizable=0;points=[];autosize=1;strokeColor=none;fillColor=none;" vertex="1" parent="1">
                    <mxGeometry x="700" y="110" width="90" height="100" as="geometry"/>
                </mxCell>
                <mxCell id="MjARPhCLm3qgXovUeG9C-29" value="" style="shape=curlyBracket;whiteSpace=wrap;html=1;rounded=1;flipH=1;" vertex="1" parent="1">
                    <mxGeometry x="870" y="435" width="20" height="285" as="geometry"/>
                </mxCell>
                <mxCell id="MjARPhCLm3qgXovUeG9C-30" value="Phase 1&lt;br&gt;&lt;br&gt;Can be staged migration &lt;br&gt;of each IDP here, with new &lt;br&gt;TechProfile for each IDP" style="text;html=1;align=center;verticalAlign=middle;resizable=0;points=[];autosize=1;strokeColor=none;fillColor=none;" vertex="1" parent="1">
                    <mxGeometry x="910" y="537.5" width="160" height="80" as="geometry"/>
                </mxCell>
                <mxCell id="MjARPhCLm3qgXovUeG9C-31" value="Phase 3&lt;br&gt;Legacy IDP can be &lt;br&gt;removed and user/app&lt;br&gt;connects directly to B2C" style="text;html=1;align=center;verticalAlign=middle;resizable=0;points=[];autosize=1;strokeColor=none;fillColor=none;" vertex="1" parent="1">
                    <mxGeometry x="90" y="425" width="150" height="60" as="geometry"/>
                </mxCell>
                <mxCell id="S6Tpn6_w-clO6A-9Hf31-26" value="" style="aspect=fixed;html=1;points=[];align=center;image;fontSize=12;image=img/lib/azure2/identity/Azure_Active_Directory.svg;" vertex="1" parent="1">
                    <mxGeometry x="810" y="290" width="70" height="64" as="geometry"/>
                </mxCell>
                <mxCell id="S6Tpn6_w-clO6A-9Hf31-28" value="Can be any AAD tenant&lt;br&gt;or allow listed specific tenant IDs" style="text;html=1;align=center;verticalAlign=middle;resizable=0;points=[];autosize=1;strokeColor=none;fillColor=none;" vertex="1" parent="1">
                    <mxGeometry x="890" y="310" width="190" height="30" as="geometry"/>
                </mxCell>
            </root>
        </mxGraphModel>
    </diagram>
    <diagram id="WAZoln6LFSusfacnB1Ns" name="HRD Flow">
        <mxGraphModel dx="1194" dy="702" grid="1" gridSize="10" guides="1" tooltips="1" connect="1" arrows="1" fold="1" page="1" pageScale="1" pageWidth="1100" pageHeight="850" math="0" shadow="0">
            <root>
                <mxCell id="BgimjU-3OAAvoMxcaFL7-0"/>
                <mxCell id="BgimjU-3OAAvoMxcaFL7-1" parent="BgimjU-3OAAvoMxcaFL7-0"/>
                <mxCell id="cz0cu6bvO2X_fqhtnT3w-2" style="edgeStyle=none;html=1;entryX=0.5;entryY=0;entryDx=0;entryDy=0;strokeWidth=1;" edge="1" parent="BgimjU-3OAAvoMxcaFL7-1" source="cz0cu6bvO2X_fqhtnT3w-0" target="cz0cu6bvO2X_fqhtnT3w-1">
                    <mxGeometry relative="1" as="geometry"/>
                </mxCell>
                <mxCell id="cz0cu6bvO2X_fqhtnT3w-0" value="RP call with domain_hint in URL" style="shape=process;whiteSpace=wrap;html=1;backgroundOutline=1;" vertex="1" parent="BgimjU-3OAAvoMxcaFL7-1">
                    <mxGeometry x="430" y="60" width="120" height="60" as="geometry"/>
                </mxCell>
                <mxCell id="cz0cu6bvO2X_fqhtnT3w-11" value="Yes" style="edgeStyle=none;html=1;strokeWidth=1;" edge="1" parent="BgimjU-3OAAvoMxcaFL7-1" source="cz0cu6bvO2X_fqhtnT3w-1" target="cz0cu6bvO2X_fqhtnT3w-3">
                    <mxGeometry relative="1" as="geometry"/>
                </mxCell>
                <mxCell id="cz0cu6bvO2X_fqhtnT3w-15" value="No" style="edgeStyle=none;html=1;entryX=0.5;entryY=0;entryDx=0;entryDy=0;strokeWidth=1;" edge="1" parent="BgimjU-3OAAvoMxcaFL7-1" source="cz0cu6bvO2X_fqhtnT3w-1" target="cz0cu6bvO2X_fqhtnT3w-12">
                    <mxGeometry relative="1" as="geometry"/>
                </mxCell>
                <mxCell id="cz0cu6bvO2X_fqhtnT3w-1" value="Does domain_hint exist?" style="rhombus;whiteSpace=wrap;html=1;" vertex="1" parent="BgimjU-3OAAvoMxcaFL7-1">
                    <mxGeometry x="450" y="190" width="80" height="80" as="geometry"/>
                </mxCell>
                <mxCell id="cz0cu6bvO2X_fqhtnT3w-8" value="redirect" style="edgeStyle=none;html=1;entryX=0.5;entryY=0;entryDx=0;entryDy=0;strokeWidth=1;" edge="1" parent="BgimjU-3OAAvoMxcaFL7-1" source="cz0cu6bvO2X_fqhtnT3w-3" target="cz0cu6bvO2X_fqhtnT3w-4">
                    <mxGeometry relative="1" as="geometry"/>
                </mxCell>
                <mxCell id="cz0cu6bvO2X_fqhtnT3w-3" value="Determine IDP Config to use based on domain_hint" style="whiteSpace=wrap;html=1;aspect=fixed;" vertex="1" parent="BgimjU-3OAAvoMxcaFL7-1">
                    <mxGeometry x="250" y="190" width="80" height="80" as="geometry"/>
                </mxCell>
                <mxCell id="cz0cu6bvO2X_fqhtnT3w-9" style="edgeStyle=none;html=1;entryX=0.5;entryY=0;entryDx=0;entryDy=0;strokeWidth=1;" edge="1" parent="BgimjU-3OAAvoMxcaFL7-1" source="cz0cu6bvO2X_fqhtnT3w-4" target="cz0cu6bvO2X_fqhtnT3w-5">
                    <mxGeometry relative="1" as="geometry"/>
                </mxCell>
                <mxCell id="cz0cu6bvO2X_fqhtnT3w-4" value="Make OIDC/SAML call to authenticate" style="whiteSpace=wrap;html=1;aspect=fixed;" vertex="1" parent="BgimjU-3OAAvoMxcaFL7-1">
                    <mxGeometry x="250" y="340" width="80" height="80" as="geometry"/>
                </mxCell>
                <mxCell id="cz0cu6bvO2X_fqhtnT3w-10" value="validate" style="edgeStyle=none;html=1;entryX=0.5;entryY=0;entryDx=0;entryDy=0;strokeWidth=1;" edge="1" parent="BgimjU-3OAAvoMxcaFL7-1" source="cz0cu6bvO2X_fqhtnT3w-5" target="cz0cu6bvO2X_fqhtnT3w-6">
                    <mxGeometry relative="1" as="geometry"/>
                </mxCell>
                <mxCell id="cz0cu6bvO2X_fqhtnT3w-5" value="(At IDP)&lt;br&gt;Collect credentials and validate" style="whiteSpace=wrap;html=1;aspect=fixed;" vertex="1" parent="BgimjU-3OAAvoMxcaFL7-1">
                    <mxGeometry x="250" y="490" width="80" height="80" as="geometry"/>
                </mxCell>
                <mxCell id="cz0cu6bvO2X_fqhtnT3w-7" value="No" style="edgeStyle=none;html=1;entryX=0;entryY=0.5;entryDx=0;entryDy=0;strokeWidth=1;exitX=0;exitY=0.5;exitDx=0;exitDy=0;" edge="1" parent="BgimjU-3OAAvoMxcaFL7-1" source="cz0cu6bvO2X_fqhtnT3w-6" target="cz0cu6bvO2X_fqhtnT3w-5">
                    <mxGeometry relative="1" as="geometry">
                        <Array as="points">
                            <mxPoint x="170" y="680"/>
                            <mxPoint x="170" y="530"/>
                        </Array>
                    </mxGeometry>
                </mxCell>
                <mxCell id="cz0cu6bvO2X_fqhtnT3w-19" value="Yes" style="edgeStyle=none;html=1;entryX=0;entryY=0.5;entryDx=0;entryDy=0;strokeWidth=1;" edge="1" parent="BgimjU-3OAAvoMxcaFL7-1" source="cz0cu6bvO2X_fqhtnT3w-6" target="cz0cu6bvO2X_fqhtnT3w-17">
                    <mxGeometry relative="1" as="geometry"/>
                </mxCell>
                <mxCell id="cz0cu6bvO2X_fqhtnT3w-6" value="AuthN success?" style="rhombus;whiteSpace=wrap;html=1;" vertex="1" parent="BgimjU-3OAAvoMxcaFL7-1">
                    <mxGeometry x="250" y="640" width="80" height="80" as="geometry"/>
                </mxCell>
                <mxCell id="cz0cu6bvO2X_fqhtnT3w-16" value="validate" style="edgeStyle=none;html=1;entryX=0.5;entryY=0;entryDx=0;entryDy=0;strokeWidth=1;" edge="1" parent="BgimjU-3OAAvoMxcaFL7-1" source="cz0cu6bvO2X_fqhtnT3w-12" target="cz0cu6bvO2X_fqhtnT3w-13">
                    <mxGeometry relative="1" as="geometry"/>
                </mxCell>
                <mxCell id="cz0cu6bvO2X_fqhtnT3w-12" value="(Local)&lt;br&gt;Collect credentials and validate" style="whiteSpace=wrap;html=1;aspect=fixed;" vertex="1" parent="BgimjU-3OAAvoMxcaFL7-1">
                    <mxGeometry x="450" y="340" width="80" height="80" as="geometry"/>
                </mxCell>
                <mxCell id="cz0cu6bvO2X_fqhtnT3w-14" value="No" style="edgeStyle=none;html=1;entryX=1;entryY=0.5;entryDx=0;entryDy=0;strokeWidth=1;" edge="1" parent="BgimjU-3OAAvoMxcaFL7-1" source="cz0cu6bvO2X_fqhtnT3w-13" target="cz0cu6bvO2X_fqhtnT3w-12">
                    <mxGeometry relative="1" as="geometry">
                        <Array as="points">
                            <mxPoint x="600" y="530"/>
                            <mxPoint x="600" y="380"/>
                        </Array>
                    </mxGeometry>
                </mxCell>
                <mxCell id="cz0cu6bvO2X_fqhtnT3w-18" value="Yes" style="edgeStyle=none;html=1;entryX=0.5;entryY=0;entryDx=0;entryDy=0;strokeWidth=1;" edge="1" parent="BgimjU-3OAAvoMxcaFL7-1" source="cz0cu6bvO2X_fqhtnT3w-13" target="cz0cu6bvO2X_fqhtnT3w-17">
                    <mxGeometry relative="1" as="geometry"/>
                </mxCell>
                <mxCell id="cz0cu6bvO2X_fqhtnT3w-13" value="AuthN success?" style="rhombus;whiteSpace=wrap;html=1;" vertex="1" parent="BgimjU-3OAAvoMxcaFL7-1">
                    <mxGeometry x="450" y="490" width="80" height="80" as="geometry"/>
                </mxCell>
                <mxCell id="cz0cu6bvO2X_fqhtnT3w-21" value="" style="edgeStyle=none;html=1;strokeWidth=1;" edge="1" parent="BgimjU-3OAAvoMxcaFL7-1" source="cz0cu6bvO2X_fqhtnT3w-17" target="cz0cu6bvO2X_fqhtnT3w-20">
                    <mxGeometry relative="1" as="geometry"/>
                </mxCell>
                <mxCell id="cz0cu6bvO2X_fqhtnT3w-17" value="Other actions (write user, collect attrs, etc.)" style="whiteSpace=wrap;html=1;aspect=fixed;" vertex="1" parent="BgimjU-3OAAvoMxcaFL7-1">
                    <mxGeometry x="450" y="640" width="80" height="80" as="geometry"/>
                </mxCell>
                <mxCell id="cz0cu6bvO2X_fqhtnT3w-23" value="Issue&lt;br&gt;JWT" style="edgeStyle=none;html=1;strokeWidth=1;entryX=0;entryY=0.5;entryDx=0;entryDy=0;entryPerimeter=0;" edge="1" parent="BgimjU-3OAAvoMxcaFL7-1" source="cz0cu6bvO2X_fqhtnT3w-20" target="cz0cu6bvO2X_fqhtnT3w-24">
                    <mxGeometry relative="1" as="geometry">
                        <mxPoint x="790" y="680" as="targetPoint"/>
                    </mxGeometry>
                </mxCell>
                <mxCell id="cz0cu6bvO2X_fqhtnT3w-20" value="Mint token" style="whiteSpace=wrap;html=1;" vertex="1" parent="BgimjU-3OAAvoMxcaFL7-1">
                    <mxGeometry x="610" y="650" width="120" height="60" as="geometry"/>
                </mxCell>
                <mxCell id="cz0cu6bvO2X_fqhtnT3w-24" value="Done" style="strokeWidth=2;html=1;shape=mxgraph.flowchart.terminator;whiteSpace=wrap;" vertex="1" parent="BgimjU-3OAAvoMxcaFL7-1">
                    <mxGeometry x="800" y="650" width="90" height="60" as="geometry"/>
                </mxCell>
            </root>
        </mxGraphModel>
    </diagram>
</mxfile>